<svg xmlns="http://www.w3.org/2000/svg" xmlns:svg="http://www.w3.org/2000/svg" xmlns:xlink="http://www.w3.org/1999/xlink" id="svg2" width="78.27" height="77.395" version="1.1" viewBox="0 0 78.27 77.395" xml:space="preserve"><metadata id="metadata8"/><defs id="defs6"><clipPath id="clipPath16" clipPathUnits="userSpaceOnUse"><path id="path18" d="m 30.027,68.987 1.337,-1.343 4.826,1.607 -1.61,-4.823 1.34,-1.34 2.95,8.844 z m -3.387,-1.073 5.746,-10.675 1.252,1.252 -5.747,10.674 z m -2.552,-10.762 1.608,4.823 -1.34,1.34 -2.949,-8.846 8.842,2.949 -1.338,1.343 z m 19.376,8.722 2.274,-5.144 h 1.894 l -4.167,8.935 -4.17,-8.038 1.895,-0.154 z m -5.797,-7.103 12,-3.485 v 1.77 l -12,3.484 z m 5.797,-9.502 -2.273,4.461 h -1.895 l 4.169,-8.252 4.167,8.379 -1.896,-0.018 z m 13.276,20.108 -8.843,2.95 2.945,-8.844 1.342,1.338 -1.607,4.825 4.823,-1.609 z m 4.597,-2.282 -10.674,-5.748 1.251,-1.25 10.675,5.746 z m -0.269,-4.728 1.609,-4.822 -4.822,1.607 -1.34,-1.34 8.843,-2.948 -2.948,8.842 z m -3.401,18.722 -8.219,-4.168 8.396,-4.17 0.033,1.896 -4.653,2.274 4.443,2.273 z m 3.391,-10.359 3.486,12 h -1.771 l -3.484,-12 z m 5.609,2.022 7.967,4.169 -8.522,4.168 -0.095,-1.896 4.873,-2.272 -4.223,-2.274 z m -10.321,11.547 -1.339,1.342 -4.824,-1.608 1.608,4.823 -1.34,1.341 -2.948,-8.844 z m 3.387,1.072 -5.746,10.675 -1.253,-1.253 5.748,-10.673 z m 2.551,10.763 -1.608,-4.823 1.341,-1.339 2.947,8.843 -8.842,-2.949 1.339,-1.341 z M 45.182,91.364 42.908,86.999 40.634,91.73 H 38.74 l 4.168,-8.521 4.17,8.245 z m 4.485,3.151 -12,3.485 v -1.77 l 12,-3.485 z m -6.759,9.088 2.274,-4.873 h 1.895 l -4.169,8.664 -4.169,-8.175 1.896,-0.083 z m -7.379,-13.8 -1.341,-1.34 1.608,-4.823 -4.823,1.608 -1.34,-1.34 8.844,-2.949 z m -10.494,-3.611 10.674,5.746 -1.251,1.251 -10.675,-5.746 z m 0.268,4.726 -1.608,4.823 4.824,-1.608 1.339,1.341 -8.844,2.948 2.949,-8.844 z m 3.364,-18.722 8.338,4.169 -8.338,4.169 v -1.896 l 4.547,-2.273 -4.547,-2.274 z m -5.069,-1.466 3.485,11 h -1.769 l -3.485,-11 z m -10.269,5.635 8.338,4.169 v -1.896 l -4.547,-2.273 4.547,-2.274 v -1.895 z"/></clipPath><linearGradient id="linearGradient24" x1="0" x2="1" y1="0" y2="0" gradientTransform="matrix(61.305366,0,0,-61.305366,13.87633,76.436119)" gradientUnits="userSpaceOnUse" spreadMethod="pad"><stop id="stop26" offset="0" style="stop-opacity:1;stop-color:#ec1c28"/><stop id="stop28" offset=".332" style="stop-opacity:1;stop-color:#ec1c28"/><stop id="stop30" offset="1" style="stop-opacity:1;stop-color:#fbc81f"/></linearGradient><linearGradient id="linearGradient943" x1="0" x2="1" y1="0" y2="0" gradientTransform="matrix(61.308309,0,0,-61.305366,12.56513,76.436119)" gradientUnits="userSpaceOnUse" spreadMethod="pad" xlink:href="#linearGradient24"/><linearGradient id="linearGradient945" x1="0" x2="1" y1="0" y2="0" gradientTransform="matrix(61.305366,0,0,-61.305366,13.87633,76.436119)" gradientUnits="userSpaceOnUse" spreadMethod="pad" xlink:href="#linearGradient24"/><linearGradient id="linearGradient947" x1="0" x2="1" y1="0" y2="0" gradientTransform="matrix(61.305366,0,0,-61.305366,13.87633,76.436119)" gradientUnits="userSpaceOnUse" spreadMethod="pad" xlink:href="#linearGradient24"/><linearGradient id="linearGradient949" x1="0" x2="1" y1="0" y2="0" gradientTransform="matrix(61.305366,0,0,-61.305366,13.87633,76.436119)" gradientUnits="userSpaceOnUse" spreadMethod="pad" xlink:href="#linearGradient24"/><linearGradient id="linearGradient951" x1="0" x2="1" y1="0" y2="0" gradientTransform="matrix(61.305366,0,0,-61.305366,13.87633,76.436119)" gradientUnits="userSpaceOnUse" spreadMethod="pad" xlink:href="#linearGradient24"/><linearGradient id="linearGradient953" x1="0" x2="1" y1="0" y2="0" gradientTransform="matrix(61.305366,0,0,-61.305366,13.87633,76.436119)" gradientUnits="userSpaceOnUse" spreadMethod="pad" xlink:href="#linearGradient24"/><linearGradient id="linearGradient955" x1="0" x2="1" y1="0" y2="0" gradientTransform="matrix(61.305366,0,0,-61.305366,13.87633,76.436119)" gradientUnits="userSpaceOnUse" spreadMethod="pad" xlink:href="#linearGradient24"/><linearGradient id="linearGradient957" x1="0" x2="1" y1="0" y2="0" gradientTransform="matrix(61.305366,0,0,-61.305366,13.87633,76.436119)" gradientUnits="userSpaceOnUse" spreadMethod="pad" xlink:href="#linearGradient24"/><linearGradient id="linearGradient959" x1="0" x2="1" y1="0" y2="0" gradientTransform="matrix(61.305366,0,0,-61.305366,13.87633,76.436119)" gradientUnits="userSpaceOnUse" spreadMethod="pad" xlink:href="#linearGradient24"/><linearGradient id="linearGradient961" x1="0" x2="1" y1="0" y2="0" gradientTransform="matrix(61.305366,0,0,-61.305366,13.87633,76.436119)" gradientUnits="userSpaceOnUse" spreadMethod="pad" xlink:href="#linearGradient24"/><linearGradient id="linearGradient963" x1="0" x2="1" y1="0" y2="0" gradientTransform="matrix(61.305366,0,0,-61.305366,13.87633,76.436119)" gradientUnits="userSpaceOnUse" spreadMethod="pad" xlink:href="#linearGradient24"/><linearGradient id="linearGradient965" x1="0" x2="1" y1="0" y2="0" gradientTransform="matrix(61.305366,0,0,-61.305366,13.87633,76.436119)" gradientUnits="userSpaceOnUse" spreadMethod="pad" xlink:href="#linearGradient24"/><linearGradient id="linearGradient967" x1="0" x2="1" y1="0" y2="0" gradientTransform="matrix(61.305366,0,0,-61.305366,13.87633,76.436119)" gradientUnits="userSpaceOnUse" spreadMethod="pad" xlink:href="#linearGradient24"/><linearGradient id="linearGradient969" x1="0" x2="1" y1="0" y2="0" gradientTransform="matrix(61.305366,0,0,-61.305366,13.87633,76.436119)" gradientUnits="userSpaceOnUse" spreadMethod="pad" xlink:href="#linearGradient24"/><linearGradient id="linearGradient971" x1="0" x2="1" y1="0" y2="0" gradientTransform="matrix(61.305366,0,0,-61.305366,13.87633,76.436119)" gradientUnits="userSpaceOnUse" spreadMethod="pad" xlink:href="#linearGradient24"/><linearGradient id="linearGradient973" x1="0" x2="1" y1="0" y2="0" gradientTransform="matrix(61.305366,0,0,-61.305366,13.87633,76.436119)" gradientUnits="userSpaceOnUse" spreadMethod="pad" xlink:href="#linearGradient24"/><linearGradient id="linearGradient975" x1="0" x2="1" y1="0" y2="0" gradientTransform="matrix(61.305366,0,0,-61.305366,13.87633,76.436119)" gradientUnits="userSpaceOnUse" spreadMethod="pad" xlink:href="#linearGradient24"/><linearGradient id="linearGradient977" x1="0" x2="1" y1="0" y2="0" gradientTransform="matrix(61.305366,0,0,-61.305366,13.87633,76.436119)" gradientUnits="userSpaceOnUse" spreadMethod="pad" xlink:href="#linearGradient24"/><linearGradient id="linearGradient979" x1="0" x2="1" y1="0" y2="0" gradientTransform="matrix(61.305366,0,0,-61.305366,13.87633,76.436119)" gradientUnits="userSpaceOnUse" spreadMethod="pad" xlink:href="#linearGradient24"/><linearGradient id="linearGradient981" x1="0" x2="1" y1="0" y2="0" gradientTransform="matrix(61.305366,0,0,-61.305366,13.87633,76.436119)" gradientUnits="userSpaceOnUse" spreadMethod="pad" xlink:href="#linearGradient24"/><linearGradient id="linearGradient983" x1="0" x2="1" y1="0" y2="0" gradientTransform="matrix(61.305366,0,0,-61.305366,13.87633,76.436119)" gradientUnits="userSpaceOnUse" spreadMethod="pad" xlink:href="#linearGradient24"/><linearGradient id="linearGradient985" x1="0" x2="1" y1="0" y2="0" gradientTransform="matrix(61.305366,0,0,-61.305366,13.87633,76.436119)" gradientUnits="userSpaceOnUse" spreadMethod="pad" xlink:href="#linearGradient24"/><linearGradient id="linearGradient987" x1="0" x2="1" y1="0" y2="0" gradientTransform="matrix(61.305366,0,0,-61.305366,13.87633,76.436119)" gradientUnits="userSpaceOnUse" spreadMethod="pad" xlink:href="#linearGradient24"/><linearGradient id="linearGradient989" x1="0" x2="1" y1="0" y2="0" gradientTransform="matrix(61.305366,0,0,-61.305366,13.87633,76.436119)" gradientUnits="userSpaceOnUse" spreadMethod="pad" xlink:href="#linearGradient24"/></defs><g style="display:inline" id="g10" transform="matrix(1.25,0,0,-1.25,-15.706625,134.2425)"><path id="path941" d="m 30.5745,68.987 1.337,-1.343 4.826,1.607 -1.61,-4.823 1.34,-1.34 2.95,8.844 z" style="fill:url(#linearGradient945);stroke:none"/><path id="path939" d="m 27.1875,67.914 5.746,-10.675 1.252,1.252 -5.747,10.674 z" style="fill:url(#linearGradient947);stroke:none"/><path id="path937" d="m 24.6355,57.152 1.608,4.823 -1.34,1.34 -2.949,-8.846 8.842,2.949 -1.338,1.343 z" style="fill:url(#linearGradient949);stroke:none"/><path id="path935" d="m 44.0115,65.874 2.274,-5.144 h 1.894 l -4.167,8.935 -4.17,-8.038 1.895,-0.154 z" style="fill:url(#linearGradient951);stroke:none"/><path id="path933" d="m 38.2145,58.771 12,-3.485 v 1.77 l -12,3.484 z" style="fill:url(#linearGradient953);stroke:none"/><path id="path931" d="m 44.0115,49.269 -2.273,4.461 h -1.895 l 4.169,-8.252 4.167,8.379 -1.896,-0.018 z" style="fill:url(#linearGradient955);stroke:none"/><path id="path929" d="m 57.2875,69.377 -8.843,2.95 2.945,-8.844 1.342,1.338 -1.607,4.825 4.823,-1.609 z" style="fill:url(#linearGradient957);stroke:none"/><path id="path927" d="m 61.8845,67.095 -10.674,-5.748 1.251,-1.25 10.675,5.746 z" style="fill:url(#linearGradient959);stroke:none"/><path id="path925" d="m 61.6155,62.367 1.609,-4.822 -4.822,1.607 -1.34,-1.34 8.843,-2.948 -2.948,8.842 z" style="fill:url(#linearGradient961);stroke:none"/><path id="path923" d="m 58.2145,81.089 -8.219,-4.168 8.396,-4.17 0.033,1.896 -4.653,2.274 4.443,2.273 z" style="fill:url(#linearGradient963);stroke:none"/><path id="path921" d="m 61.6055,70.73 3.486,12 h -1.771 l -3.484,-12 z" style="fill:url(#linearGradient965);stroke:none"/><path id="path919" d="m 67.2145,72.752 7.967,4.169 -8.522,4.168 -0.095,-1.896 4.873,-2.272 -4.223,-2.274 z" style="fill:url(#linearGradient967);stroke:none"/><path id="path917" d="m 56.8935,84.299 -1.339,1.342 -4.824,-1.608 1.608,4.823 -1.34,1.341 -2.948,-8.844 z" style="fill:url(#linearGradient969);stroke:none"/><path id="path915" d="m 60.2805,85.371 -5.746,10.675 -1.253,-1.253 5.748,-10.673 z" style="fill:url(#linearGradient971);stroke:none"/><path id="path913" d="m 62.8315,96.134 -1.608,-4.823 1.341,-1.339 2.947,8.843 -8.842,-2.949 1.339,-1.341 z" style="fill:url(#linearGradient973);stroke:none"/><path id="path911" d="m 45.7295,91.364 -2.274,-4.365 -2.274,4.731 h -1.894 l 4.168,-8.521 4.17,8.245 z" style="fill:url(#linearGradient975);stroke:none"/><path id="path909" d="m 50.2145,94.515 -12,3.485 v -1.77 l 12,-3.485 z" style="fill:url(#linearGradient977);stroke:none"/><path id="path907" d="m 43.4555,103.603 2.274,-4.873 h 1.895 l -4.169,8.664 -4.169,-8.175 1.896,-0.083 z" style="fill:url(#linearGradient979);stroke:none"/><path id="path905" d="m 36.0765,89.803 -1.341,-1.34 1.608,-4.823 -4.823,1.608 -1.34,-1.34 8.844,-2.949 z" style="fill:url(#linearGradient981);stroke:none"/><path id="path903" d="m 25.5825,86.192 10.674,5.746 -1.251,1.251 -10.675,-5.746 z" style="fill:url(#linearGradient983);stroke:none"/><path id="path901" d="m 25.8505,90.918 -1.608,4.823 4.824,-1.608 1.339,1.341 -8.844,2.948 2.949,-8.844 z" style="fill:url(#linearGradient985);stroke:none"/><path id="path899" d="m 29.2145,72.196 8.338,4.169 -8.338,4.169 v -1.896 l 4.547,-2.273 -4.547,-2.274 z" style="fill:url(#linearGradient987);stroke:none"/><path id="path897" d="m 24.1455,70.73 3.485,11 h -1.769 l -3.485,-11 z" style="fill:url(#linearGradient989);stroke:none"/><path id="path32" d="m 12.5653,76.365 8.3384,4.169 V 78.638 L 16.356482,76.365 20.9037,74.091 v -1.895 z" style="fill:url(#linearGradient943);stroke:none;stroke-width:1.00002396"/></g></svg>